<svg width="478" height="425" viewBox="0 0 478 425" fill="none" xmlns="http://www.w3.org/2000/svg">
<path d="M280.359 162.301C379.476 237.29 442.501 320.632 421.35 348.825C400.177 377.05 302.649 339.71 202.808 265.367" stroke="#5A7B67"/>
<path d="M267.233 152.844C170.284 82.5031 77.4312 47.9141 56.8334 75.3711C36.2353 102.829 95.4232 182.298 190.081 255.697" stroke="#5A7B67"/>
<path d="M290.494 135.325L263.545 204.823L263.443 205.085L263.614 205.308L308.931 264.49L239.433 237.541L239.171 237.439L238.948 237.61L179.765 282.927L206.715 213.429L206.816 213.167L206.646 212.944L161.329 153.762L230.826 180.711L231.088 180.813L231.311 180.642L290.494 135.325Z" stroke="#5A7B67"/>
</svg>
