<svg width="24" height="24" viewBox="0 0 24 24" fill="none" xmlns="http://www.w3.org/2000/svg">
<mask id="path-1-inside-1_3037_12587" fill="white">
<path d="M21.3471 23H21.1968C3.82047 22.0438 1.3533 8.01462 1.00842 3.73308C0.980634 3.40018 1.02177 3.06531 1.12946 2.74766C1.23715 2.43 1.40929 2.1358 1.63602 1.88191C1.86274 1.62802 2.13959 1.41943 2.45071 1.26809C2.76182 1.11676 3.10109 1.02566 3.44906 1H8.3215C8.67571 0.999673 9.02186 1.10112 9.31512 1.29121C9.60837 1.4813 9.83522 1.75127 9.96628 2.06615L11.3104 5.23077C11.4398 5.53839 11.4719 5.87561 11.4028 6.20054C11.3336 6.52547 11.1662 6.8238 10.9213 7.05846L9.03777 8.87769C9.33199 10.4776 10.1327 11.9523 11.3315 13.1025C12.5304 14.2527 14.0695 15.0227 15.7407 15.3085L17.6596 13.4892C17.9085 13.2575 18.2232 13.1011 18.5645 13.0394C18.9057 12.9777 19.2584 13.0135 19.5785 13.1423L22.9123 14.42C23.2364 14.5494 23.5129 14.7681 23.7066 15.0484C23.9003 15.3287 24.0024 15.6578 24 15.9938V20.4615C24 21.1348 23.7205 21.7804 23.2229 22.2565C22.7254 22.7326 22.0507 23 21.3471 23ZM3.66129 2.69231C3.42676 2.69231 3.20184 2.78146 3.036 2.94014C2.87017 3.09883 2.777 3.31405 2.777 3.53846V3.60615C3.18378 8.61539 5.79243 20.4615 21.294 21.3077C21.4102 21.3146 21.5266 21.2994 21.6367 21.2631C21.7467 21.2268 21.8482 21.1701 21.9353 21.0962C22.0224 21.0223 22.0934 20.9327 22.1442 20.8325C22.195 20.7323 22.2246 20.6235 22.2314 20.5123V15.9938L18.8976 14.7162L16.3597 17.1277L15.9352 17.0769C8.24191 16.1546 7.19845 8.79308 7.19845 8.71692L7.14539 8.31077L9.65678 5.88231L8.33034 2.69231H3.66129Z"/>
</mask>
<path d="M21.3471 23H21.1968C3.82047 22.0438 1.3533 8.01462 1.00842 3.73308C0.980634 3.40018 1.02177 3.06531 1.12946 2.74766C1.23715 2.43 1.40929 2.1358 1.63602 1.88191C1.86274 1.62802 2.13959 1.41943 2.45071 1.26809C2.76182 1.11676 3.10109 1.02566 3.44906 1H8.3215C8.67571 0.999673 9.02186 1.10112 9.31512 1.29121C9.60837 1.4813 9.83522 1.75127 9.96628 2.06615L11.3104 5.23077C11.4398 5.53839 11.4719 5.87561 11.4028 6.20054C11.3336 6.52547 11.1662 6.8238 10.9213 7.05846L9.03777 8.87769C9.33199 10.4776 10.1327 11.9523 11.3315 13.1025C12.5304 14.2527 14.0695 15.0227 15.7407 15.3085L17.6596 13.4892C17.9085 13.2575 18.2232 13.1011 18.5645 13.0394C18.9057 12.9777 19.2584 13.0135 19.5785 13.1423L22.9123 14.42C23.2364 14.5494 23.5129 14.7681 23.7066 15.0484C23.9003 15.3287 24.0024 15.6578 24 15.9938V20.4615C24 21.1348 23.7205 21.7804 23.2229 22.2565C22.7254 22.7326 22.0507 23 21.3471 23ZM3.66129 2.69231C3.42676 2.69231 3.20184 2.78146 3.036 2.94014C2.87017 3.09883 2.777 3.31405 2.777 3.53846V3.60615C3.18378 8.61539 5.79243 20.4615 21.294 21.3077C21.4102 21.3146 21.5266 21.2994 21.6367 21.2631C21.7467 21.2268 21.8482 21.1701 21.9353 21.0962C22.0224 21.0223 22.0934 20.9327 22.1442 20.8325C22.195 20.7323 22.2246 20.6235 22.2314 20.5123V15.9938L18.8976 14.7162L16.3597 17.1277L15.9352 17.0769C8.24191 16.1546 7.19845 8.79308 7.19845 8.71692L7.14539 8.31077L9.65678 5.88231L8.33034 2.69231H3.66129Z" fill="white"/>
<path d="M21.3471 23V26V23ZM21.1968 23L21.0319 25.9955L21.1143 26H21.1968V23ZM1.00842 3.73308L3.99875 3.49221L3.99802 3.48352L1.00842 3.73308ZM3.44906 1V-2H3.33862L3.22847 -1.99188L3.44906 1ZM8.3215 1V4L8.32428 4L8.3215 1ZM9.96628 2.06615L7.1966 3.21893L7.20078 3.22896L7.20502 3.23896L9.96628 2.06615ZM11.3104 5.23077L14.0757 4.0674L14.0717 4.05797L11.3104 5.23077ZM10.9213 7.05846L8.84555 4.89251L8.83715 4.90063L10.9213 7.05846ZM9.03777 8.87769L6.95361 6.71986L5.79622 7.83774L6.08725 9.4203L9.03777 8.87769ZM15.7407 15.3085L15.2351 18.2655L16.7151 18.5186L17.8047 17.4856L15.7407 15.3085ZM17.6596 13.4892L15.6156 11.2934L15.6055 11.3027L15.5956 11.3121L17.6596 13.4892ZM19.5785 13.1423L18.4584 15.9254L18.4816 15.9347L18.5049 15.9436L19.5785 13.1423ZM22.9123 14.42L24.0244 11.6337L24.0052 11.6261L23.9859 11.6187L22.9123 14.42ZM24 15.9938L21 15.9717L21 15.9828V15.9938H24ZM24 20.4615H27H24ZM2.777 3.60615H-0.222998V3.72776L-0.213155 3.84897L2.777 3.60615ZM21.294 21.3077L21.4711 18.3129L21.4575 18.3122L21.294 21.3077ZM22.2314 20.5123L25.2258 20.6944L25.2314 20.6034V20.5123H22.2314ZM22.2314 15.9938H25.2314V13.9308L23.305 13.1925L22.2314 15.9938ZM18.8976 14.7162L19.9712 11.9148L18.2035 11.2373L16.8311 12.5414L18.8976 14.7162ZM16.3597 17.1277L16.0034 20.1065L17.4038 20.274L18.4262 19.3025L16.3597 17.1277ZM15.9352 17.0769L15.5781 20.0556L15.5789 20.0557L15.9352 17.0769ZM7.19845 8.71692H10.1985V8.5218L10.1732 8.32832L7.19845 8.71692ZM7.14539 8.31077L5.05998 6.15414L3.9752 7.2031L4.17067 8.69937L7.14539 8.31077ZM9.65678 5.88231L11.7422 8.03894L13.2117 6.61797L12.4268 4.73049L9.65678 5.88231ZM8.33034 2.69231L11.1004 1.54048L10.3319 -0.307691H8.33034V2.69231ZM21.3471 20H21.1968V26H21.3471V20ZM21.3616 20.0045C13.6103 19.578 9.5041 16.3179 7.1961 12.9259C4.78219 9.37826 4.15201 5.39506 3.99874 3.49221L-1.98189 3.97394C-1.79029 6.35264 -1.01445 11.5248 2.23552 16.3012C5.5914 21.2332 11.4069 25.4658 21.0319 25.9955L21.3616 20.0045ZM3.99802 3.48352C4.00462 3.56251 3.99452 3.64038 3.97062 3.71088L-1.7117 1.78443C-1.95099 2.49024 -2.04335 3.23785 -1.98118 3.98264L3.99802 3.48352ZM3.97062 3.71088C3.94683 3.78107 3.91157 3.83769 3.87367 3.88013L-0.601635 -0.11632C-1.09298 0.4339 -1.47252 1.07893 -1.7117 1.78443L3.97062 3.71088ZM3.87367 3.88013C3.83605 3.92226 3.79699 3.94932 3.76297 3.96587L1.13845 -1.42968C0.482194 -1.11046 -0.110563 -0.666232 -0.601635 -0.11632L3.87367 3.88013ZM3.76297 3.96587C3.72914 3.98232 3.6976 3.98982 3.66965 3.99188L3.22847 -1.99188C2.50457 -1.93851 1.7945 -1.7488 1.13845 -1.42968L3.76297 3.96587ZM3.44906 4H8.3215V-2H3.44906V4ZM8.32428 4C8.10677 4.0002 7.88376 3.93853 7.68333 3.80861L10.9469 -1.22618C10.16 -1.73628 9.24464 -2.00086 8.31872 -2L8.32428 4ZM7.68333 3.80861C7.48155 3.67781 7.30439 3.4779 7.1966 3.21893L12.736 0.913379C12.3661 0.0246503 11.7352 -0.715205 10.9469 -1.22618L7.68333 3.80861ZM7.20502 3.23896L8.54914 6.40357L14.0717 4.05797L12.7275 0.893355L7.20502 3.23896ZM8.54515 6.39413C8.43813 6.13975 8.40948 5.85316 8.46851 5.57588L14.337 6.82519C14.5344 5.89806 14.4415 4.93702 14.0756 4.06741L8.54515 6.39413ZM8.46851 5.57588C8.52731 5.29968 8.6659 5.06471 8.84557 4.89252L12.9971 9.2244C13.6664 8.58289 14.1399 7.75126 14.337 6.82519L8.46851 5.57588ZM8.83715 4.90063L6.95361 6.71986L11.1219 11.0355L13.0055 9.2163L8.83715 4.90063ZM6.08725 9.4203C6.49788 11.6531 7.61199 13.6914 9.25461 15.2673L13.4084 10.9377C12.6534 10.2133 12.1661 9.30198 11.9883 8.33509L6.08725 9.4203ZM9.25461 15.2673C10.8956 16.8417 12.9856 17.8809 15.2351 18.2655L16.2463 12.3514C15.1534 12.1645 14.1651 11.6637 13.4084 10.9377L9.25461 15.2673ZM17.8047 17.4856L19.7236 15.6663L15.5956 11.3121L13.6767 13.1313L17.8047 17.4856ZM19.7036 15.6851C19.5233 15.853 19.3106 15.9531 19.0982 15.9915L18.0308 10.0872C17.1358 10.249 16.2938 10.662 15.6156 11.2934L19.7036 15.6851ZM19.0982 15.9915C18.8862 16.0298 18.6654 16.0087 18.4584 15.9254L20.6986 10.3592C19.8514 10.0183 18.9253 9.9255 18.0308 10.0872L19.0982 15.9915ZM18.5049 15.9436L21.8387 17.2213L23.9859 11.6187L20.6521 10.341L18.5049 15.9436ZM21.8002 17.2063C21.5899 17.1223 21.3892 16.9719 21.2386 16.754L26.1746 13.3428C25.6366 12.5643 24.8828 11.9764 24.0244 11.6337L21.8002 17.2063ZM21.2386 16.754C21.0868 16.5344 20.9979 16.2617 21 15.9717L26.9999 16.016C27.007 15.0539 26.7138 14.1231 26.1746 13.3428L21.2386 16.754ZM21 15.9938V20.4615H27V15.9938H21ZM21 20.4615C21 20.2954 21.0702 20.1643 21.1489 20.089L25.297 24.424C26.3708 23.3966 27 21.9742 27 20.4615H21ZM21.1489 20.089C21.2231 20.0179 21.2966 20 21.3471 20V26C22.8047 26 24.2278 25.4472 25.297 24.424L21.1489 20.089ZM3.66129 -0.307691C2.67274 -0.307691 1.69951 0.0668359 0.961938 0.772597L5.11007 5.10769C4.70417 5.49608 4.18079 5.69231 3.66129 5.69231V-0.307691ZM0.961938 0.772597C0.219872 1.48266 -0.222998 2.47465 -0.222998 3.53846H5.777C5.777 4.15344 5.52046 4.71499 5.11007 5.10769L0.961938 0.772597ZM-0.222998 3.53846V3.60615H5.777V3.53846H-0.222998ZM-0.213155 3.84897C0.0111709 6.61145 0.84588 11.4429 3.93454 15.7629C7.12729 20.2285 12.5092 23.8326 21.1305 24.3032L21.4575 18.3122C14.5773 17.9366 10.904 15.1946 8.81537 12.2733C6.62261 9.20634 5.94961 5.6101 5.76716 3.36334L-0.213155 3.84897ZM21.1169 24.3025C21.6095 24.3316 22.1049 24.2676 22.5762 24.1122L20.6972 18.414C20.9484 18.3312 21.2109 18.2975 21.4711 18.3129L21.1169 24.3025ZM22.5762 24.1122C23.0477 23.9568 23.4903 23.7112 23.8763 23.3837L19.9943 18.8088C20.2061 18.629 20.4458 18.4969 20.6972 18.414L22.5762 24.1122ZM23.8763 23.3837C24.2626 23.0559 24.5855 22.6515 24.8199 22.1892L19.4685 19.4758C19.6012 19.214 19.7822 18.9888 19.9943 18.8088L23.8763 23.3837ZM24.8199 22.1892C25.0544 21.7266 25.194 21.2184 25.2258 20.6944L19.2369 20.3302C19.2553 20.0286 19.3355 19.738 19.4685 19.4758L24.8199 22.1892ZM25.2314 20.5123V15.9938H19.2314V20.5123H25.2314ZM23.305 13.1925L19.9712 11.9148L17.824 17.5175L21.1578 18.7952L23.305 13.1925ZM16.8311 12.5414L14.2932 14.9529L18.4262 19.3025L20.9641 16.8909L16.8311 12.5414ZM16.716 14.1489L16.2915 14.0982L15.5789 20.0557L16.0034 20.1065L16.716 14.1489ZM16.2923 14.0983C13.5231 13.7663 12.0716 12.3492 11.2292 10.9949C10.7873 10.2847 10.5129 9.58089 10.3513 9.05086C10.2716 8.78926 10.2228 8.5814 10.196 8.45195C10.1826 8.38716 10.1754 8.34539 10.1729 8.32992C10.1715 8.32146 10.1722 8.32494 10.1741 8.33941C10.175 8.34551 10.1774 8.36328 10.1802 8.38869C10.1816 8.40053 10.1843 8.42514 10.1871 8.45704C10.1885 8.47294 10.1907 8.49946 10.1927 8.5325C10.1942 8.55667 10.1985 8.62681 10.1985 8.71692H4.19845C4.19845 8.86269 4.21 8.98079 4.21019 8.98304C4.21326 9.01789 4.21636 9.04633 4.21823 9.06287C4.22217 9.09767 4.22618 9.12827 4.22922 9.15057C4.23561 9.19742 4.24309 9.24667 4.25123 9.29653C4.26775 9.39772 4.29047 9.52281 4.32062 9.66841C4.38093 9.95972 4.47377 10.3467 4.61206 10.8003C4.88656 11.7008 5.35386 12.9094 6.13453 14.1643C7.73715 16.7405 10.654 19.4653 15.5781 20.0556L16.2923 14.0983ZM10.1732 8.32832L10.1201 7.92217L4.17067 8.69937L4.22373 9.10552L10.1732 8.32832ZM9.23081 10.4674L11.7422 8.03894L7.57136 3.72568L5.05998 6.15414L9.23081 10.4674ZM12.4268 4.73049L11.1004 1.54048L5.56027 3.84413L6.8867 7.03413L12.4268 4.73049ZM8.33034 -0.307691H3.66129V5.69231H8.33034V-0.307691Z" fill="white" mask="url(#path-1-inside-1_3037_12587)"/>
</svg>
